<?xml version="1.0" encoding="UTF-8" standalone="no" ?>
<!DOCTYPE svg PUBLIC "-//W3C//DTD SVG 1.1//EN" "http://www.w3.org/Graphics/SVG/1.1/DTD/svg11.dtd">
<svg xmlns="http://www.w3.org/2000/svg" xmlns:xlink="http://www.w3.org/1999/xlink" version="1.1" width="45" height="45" viewBox="0 0 45 45" xml:space="preserve">
<desc>Created with Fabric.js 5.3.0</desc>
<defs>
</defs>
<g transform="matrix(1 0 0 1 22.5 22.5)" id="w-5JpHCYKHoMJK4qBdoz6"  >
<g style="" vector-effect="non-scaling-stroke"   >
		<g transform="matrix(1 0 0 1 0 14.5075934244)" id="AOlABjI4p0ItxxZsDQAWy"  >
<path style="stroke: rgb(0,0,0); stroke-width: 1.5; stroke-dasharray: none; stroke-linecap: butt; stroke-dashoffset: 0; stroke-linejoin: round; stroke-miterlimit: 4; fill: rgb(0,0,0); fill-rule: evenodd; opacity: 1;" vector-effect="non-scaling-stroke"  transform=" translate(-22.5, -36.4075934244)" d="M 9 36 C 12.39 35.03 19.11 36.43 22.5 34 C 25.89 36.43 32.61 35.03 36 36 C 36 36 37.65 36.54 39 38 C 38.32 38.97 37.35 38.99 36 38.5 C 32.61 37.53 25.89 38.96 22.5 37.5 C 19.11 38.96 12.39 37.53 9 38.5 C 7.65 38.99 6.68 38.97 6 38 C 7.35 36.54 9 36 9 36 z" stroke-linecap="round" />
</g>
		<g transform="matrix(1 0 0 1 0 0.2875)" id="92eXKP9g1aR4BB91_tMzv"  >
<path style="stroke: rgb(0,0,0); stroke-width: 1.5; stroke-dasharray: none; stroke-linecap: butt; stroke-dashoffset: 0; stroke-linejoin: round; stroke-miterlimit: 4; fill: rgb(0,0,0); fill-rule: evenodd; opacity: 1;" vector-effect="non-scaling-stroke"  transform=" translate(-22.5, -22.1875)" d="M 15 32 C 17.5 34.5 27.5 34.5 30 32 C 30.5 30.5 30 30 30 30 C 30 27.5 27.5 26 27.5 26 C 33 24.5 33.5 14.5 22.5 10.5 C 11.5 14.5 12 24.5 17.5 26 C 17.5 26 15 27.5 15 30 C 15 30 14.5 30.5 15 32 z" stroke-linecap="round" />
</g>
		<g transform="matrix(1 0 0 1 0 -13.9)" id="DEsp4iIjJaQ9UGKwO6J-s"  >
<path style="stroke: rgb(0,0,0); stroke-width: 1.5; stroke-dasharray: none; stroke-linecap: butt; stroke-dashoffset: 0; stroke-linejoin: round; stroke-miterlimit: 4; fill: rgb(0,0,0); fill-rule: evenodd; opacity: 1;" vector-effect="non-scaling-stroke"  transform=" translate(-22.5, -8)" d="M 25 8 C 25 9.380711874576983 23.880711874576985 10.5 22.5 10.5 C 21.119288125423015 10.5 20 9.380711874576983 20 8 C 20 6.619288125423017 21.119288125423015 5.5 22.5 5.5 C 23.880711874576985 5.5 25 6.619288125423016 25 7.999999999999999 z" stroke-linecap="round" />
</g>
		<g transform="matrix(1 0 0 1 0 0.85)" id="ApQGpj1xO1YV41C9gizl7"  >
<path style="stroke: rgb(255,255,255); stroke-width: 1.5; stroke-dasharray: none; stroke-linecap: round; stroke-dashoffset: 0; stroke-linejoin: miter; stroke-miterlimit: 4; fill: none; fill-rule: evenodd; opacity: 1;" vector-effect="non-scaling-stroke"  transform=" translate(-22.5, -22.75)" d="M 17.5 26 L 27.5 26 M 15 30 L 30 30 M 22.5 15.5 L 22.5 20.5 M 20 18 L 25 18" stroke-linecap="round" />
</g>
</g>
</g>
<g transform="matrix(0.0737858176 0 0 0.0737858176 22.5 18.5845495865)" id="meuSe_I4n9Lh9LGDpKKF7"  >
<path style="stroke: none; stroke-width: 1; stroke-dasharray: none; stroke-linecap: butt; stroke-dashoffset: 0; stroke-linejoin: miter; stroke-miterlimit: 4; fill: rgb(255,255,255); fill-rule: nonzero; opacity: 1;" vector-effect="non-scaling-stroke"  transform=" translate(-40, -40)" d="M 63.366 80 L 40 56.634 L 16.634 80 L 0 63.366 L 23.366 40 L 0 16.634 L 16.634 0 L 40 23.366 L 63.366 0 L 80 16.634 L 56.634 40 L 80 63.366 L 63.366 80 z" stroke-linecap="round" />
</g>
</svg>